# Blender 4.2.0
# www.blender.org
mtllib wood.mtl
o Cylinder.014
v 0.000000 0.190000 0.896885
v 0.000000 0.175251 1.000000
v 0.169547 0.095000 0.896885
v 0.156386 0.087626 1.000000
v 0.169547 -0.095000 0.896885
v 0.156386 -0.087626 1.000000
v 0.000000 -0.190000 0.896885
v 0.000000 -0.175251 1.000000
v -0.169547 -0.095000 0.896885
v -0.156386 -0.087625 1.000000
v -0.169547 0.095000 0.896885
v -0.156386 0.087626 1.000000
v 0.000000 0.190000 0.000000
v 0.169547 0.095000 0.000000
v 0.169547 -0.095000 0.000000
v 0.000000 -0.190000 0.000000
v -0.169547 -0.095000 0.000000
v -0.169547 0.095000 0.000000
v -0.169547 -0.095000 0.672664
v -0.169547 -0.095000 0.448443
v -0.169547 -0.095000 0.224221
v 0.000000 -0.190000 0.224221
v 0.000000 -0.190000 0.448443
v 0.000000 -0.190000 0.672664
v 0.169547 -0.095000 0.672664
v 0.169547 -0.095000 0.448443
v 0.169547 -0.095000 0.224221
v 0.169547 0.095000 0.224221
v 0.169547 0.095000 0.448443
v 0.169547 0.095000 0.672664
v -0.169547 0.095000 0.672664
v -0.169547 0.095000 0.448443
v -0.169547 0.095000 0.224221
v 0.000000 0.190000 0.224221
v 0.000000 0.190000 0.448443
v 0.000000 0.190000 0.672664
v 0.169547 0.095000 1.000000
v 0.000000 0.190000 1.000000
v 0.169547 -0.095000 1.000000
v 0.000000 -0.190000 1.000000
v -0.169547 -0.095000 1.000000
v -0.169547 0.095000 1.000000
v 0.156386 0.087626 0.986781
v 0.000000 0.175251 0.986781
v 0.156386 -0.087626 0.986781
v 0.000000 -0.175251 0.986781
v -0.156386 -0.087625 0.986781
v -0.156386 0.087626 0.986781
v 0.361007 0.010247 0.850508
v 0.399913 -0.017235 0.827584
v 0.439636 0.007007 0.802327
v 0.440453 0.058731 0.799993
v 0.361824 0.061971 0.848174
v 0.401547 0.086212 0.822916
v 0.364902 0.016774 0.847884
v 0.399550 -0.007700 0.827469
v 0.435963 0.014521 0.804317
v 0.436558 0.052203 0.802616
v 0.365497 0.054456 0.846184
v 0.401910 0.076678 0.823031
v 0.401547 0.086212 0.822916
v 0.361824 0.061971 0.848174
v 0.399913 -0.017235 0.827584
v 0.439636 0.007007 0.802327
v 0.440453 0.058731 0.799993
v 0.361007 0.010247 0.850508
vn 0.4888 0.8724 -0.0000
vn 1.0000 -0.0000 -0.0000
vn 0.4888 -0.8724 -0.0000
vn -0.4888 -0.8724 -0.0000
vn -1.0000 -0.0000 -0.0000
vn -0.4888 0.8724 -0.0000
vn -0.0000 -0.0000 -1.0000
vn -0.0000 -0.0000 1.0000
vn 0.3230 0.8326 -0.4500
vn -0.2209 -0.3942 0.8921
vn -0.0480 0.7573 0.6513
vn -0.3106 0.0477 0.9493
vn 0.4696 -0.8381 -0.2776
vn 0.4328 -0.0000 -0.9015
vn 0.5231 0.0302 0.8517
vn 0.5232 0.0302 0.8517
vn 0.3997 0.7134 -0.5755
vn -0.0127 -0.6511 0.7589
vn -0.2540 0.4533 0.8544
vn -0.3178 -0.0000 0.9481
vn 0.4236 -0.8868 -0.1848
vn 0.4197 -0.0475 -0.9064
vt 1.000000 1.000000
vt 0.833333 0.500000
vt 1.000000 0.500000
vt 0.833333 1.000000
vt 0.666667 0.500000
vt 0.666667 1.000000
vt 0.500000 0.500000
vt 0.500000 1.000000
vt 0.333333 0.500000
vt 0.058288 0.360685
vt 0.250000 0.471370
vt 0.333333 1.000000
vt 0.166667 0.500000
vt 0.166667 1.000000
vt -0.000000 0.500000
vt 0.957846 0.370000
vt 0.750000 0.010000
vt 0.542154 0.370000
vt 0.166667 0.500000
vt 0.441712 0.360685
vt 0.250000 0.490000
vt 0.441712 0.139315
vt 0.457846 0.370000
vt 0.250000 0.028630
vt 0.457846 0.130000
vt 0.058288 0.139315
vt 0.250000 0.010000
vt 0.042154 0.130000
vt 0.042154 0.370000
vt 0.244554 0.500000
vt 0.514485 0.500000
vt 0.811167 0.500000
vt 0.915631 0.500000
vt 0.682636 0.500000
vt 0.336452 0.500000
vt -0.000000 1.000000
vt 0.750000 0.490000
vt 0.957846 0.130000
vt 0.542154 0.130000
s 0
usemtl Material.017
f 38/1/1 3/2/1 1/3/1
f 37/4/2 5/5/2 3/2/2
f 39/6/3 7/7/3 5/5/3
f 40/8/4 9/9/4 7/7/4
f 12/10/3 44/11/3 2/11/3
f 41/12/5 11/13/5 9/9/5
f 42/14/6 1/15/6 11/13/6
f 21/9/4 16/7/4 22/7/4
f 14/16/7 16/17/7 18/18/7
f 27/5/2 14/2/2 28/2/2
f 33/19/5 17/9/5 21/9/5
f 28/2/1 13/3/1 34/3/1
f 22/7/3 15/5/3 27/5/3
f 34/15/6 18/13/6 33/19/6
f 1/15/6 31/13/6 11/13/6
f 36/15/6 32/19/6 31/13/6
f 35/15/6 33/19/6 32/19/6
f 7/7/3 25/5/3 5/5/3
f 24/7/3 26/5/3 25/5/3
f 23/7/3 27/5/3 26/5/3
f 3/2/1 36/3/1 1/3/1
f 30/2/1 35/3/1 36/3/1
f 29/2/1 34/3/1 35/3/1
f 11/13/5 19/9/5 9/9/5
f 31/13/5 20/9/5 19/9/5
f 32/19/5 21/9/5 20/9/5
f 5/5/2 30/2/2 3/2/2
f 25/5/2 29/2/2 30/2/2
f 26/5/2 28/2/2 29/2/2
f 9/9/4 24/7/4 7/7/4
f 19/9/4 23/7/4 24/7/4
f 20/9/4 22/7/4 23/7/4
f 4/20/8 38/21/8 2/11/8
f 6/22/8 37/23/8 4/20/8
f 8/24/8 39/25/8 6/22/8
f 10/26/8 40/27/8 8/24/8
f 12/10/8 41/28/8 10/26/8
f 2/11/8 42/29/8 12/10/8
f 44/11/8 47/26/8 45/22/8
f 8/24/1 47/26/1 10/26/1
f 4/20/5 45/22/5 6/22/5
f 10/26/2 48/10/2 12/10/2
f 6/22/6 46/24/6 8/24/6
f 2/11/4 43/20/4 4/20/4
f 30/2/9 54/3/9 52/2/9
f 24/7/10 49/9/10 19/9/10
f 36/15/11 53/13/11 54/15/11
f 31/13/12 49/9/12 53/13/12
f 25/5/13 50/7/13 24/7/13
f 30/2/14 51/5/14 25/5/14
f 50/7/8 64/5/8 63/7/8
f 51/5/8 65/2/8 64/5/8
f 52/2/8 61/3/8 65/2/8
f 54/15/8 62/13/8 61/15/8
f 49/9/8 63/7/8 66/9/8
f 53/13/8 66/9/8 62/13/8
f 59/30/15 56/31/15 58/32/15
f 60/33/15 62/13/15 59/30/15
f 56/31/15 64/5/15 57/34/15
f 60/33/15 65/2/15 61/3/15
f 59/30/16 66/9/16 55/35/16
f 57/34/15 65/2/15 58/32/15
f 56/31/15 66/9/15 63/7/15
f 38/1/1 37/4/1 3/2/1
f 37/4/2 39/6/2 5/5/2
f 39/6/3 40/8/3 7/7/3
f 40/8/4 41/12/4 9/9/4
f 12/10/3 48/10/3 44/11/3
f 41/12/5 42/14/5 11/13/5
f 42/14/6 38/36/6 1/15/6
f 21/9/4 17/9/4 16/7/4
f 18/18/7 13/37/7 14/16/7
f 14/16/7 15/38/7 16/17/7
f 16/17/7 17/39/7 18/18/7
f 27/5/2 15/5/2 14/2/2
f 33/19/5 18/13/5 17/9/5
f 28/2/1 14/2/1 13/3/1
f 22/7/3 16/7/3 15/5/3
f 34/15/6 13/15/6 18/13/6
f 1/15/6 36/15/6 31/13/6
f 36/15/6 35/15/6 32/19/6
f 35/15/6 34/15/6 33/19/6
f 7/7/3 24/7/3 25/5/3
f 24/7/3 23/7/3 26/5/3
f 23/7/3 22/7/3 27/5/3
f 3/2/1 30/2/1 36/3/1
f 30/2/1 29/2/1 35/3/1
f 29/2/1 28/2/1 34/3/1
f 11/13/5 31/13/5 19/9/5
f 31/13/5 32/19/5 20/9/5
f 32/19/5 33/19/5 21/9/5
f 5/5/2 25/5/2 30/2/2
f 25/5/2 26/5/2 29/2/2
f 26/5/2 27/5/2 28/2/2
f 9/9/4 19/9/4 24/7/4
f 19/9/4 20/9/4 23/7/4
f 20/9/4 21/9/4 22/7/4
f 4/20/8 37/23/8 38/21/8
f 6/22/8 39/25/8 37/23/8
f 8/24/8 40/27/8 39/25/8
f 10/26/8 41/28/8 40/27/8
f 12/10/8 42/29/8 41/28/8
f 2/11/8 38/21/8 42/29/8
f 45/22/8 43/20/8 44/11/8
f 44/11/8 48/10/8 47/26/8
f 47/26/8 46/24/8 45/22/8
f 8/24/1 46/24/1 47/26/1
f 4/20/5 43/20/5 45/22/5
f 10/26/2 47/26/2 48/10/2
f 6/22/6 45/22/6 46/24/6
f 2/11/4 44/11/4 43/20/4
f 30/2/17 36/3/17 54/3/17
f 24/7/18 50/7/18 49/9/18
f 36/15/19 31/13/19 53/13/19
f 31/13/20 19/9/20 49/9/20
f 25/5/21 51/5/21 50/7/21
f 30/2/22 52/2/22 51/5/22
f 50/7/8 51/5/8 64/5/8
f 51/5/8 52/2/8 65/2/8
f 52/2/8 54/3/8 61/3/8
f 54/15/8 53/13/8 62/13/8
f 49/9/8 50/7/8 63/7/8
f 53/13/8 49/9/8 66/9/8
f 58/32/15 60/33/15 59/30/15
f 59/30/15 55/35/15 56/31/15
f 56/31/15 57/34/15 58/32/15
f 60/33/16 61/3/16 62/13/16
f 56/31/15 63/7/15 64/5/15
f 60/33/15 58/32/15 65/2/15
f 59/30/15 62/13/15 66/9/15
f 57/34/15 64/5/15 65/2/15
f 56/31/15 55/35/15 66/9/15
